Coordinates
version=1
nRows=17
nColumns=40
inDegrees=yes

Units are S.I. units (second, meters, Newtons, ...)
If the header above contains a line with 'inDegrees', this indicates whether rotational values are in degrees (yes) or radians (no).

endheader
time	pelvis_tilt	pelvis_list	pelvis_rotation	pelvis_tx	pelvis_ty	pelvis_tz	hip_flexion_r	hip_adduction_r	hip_rotation_r	knee_angle_r	knee_angle_r_beta	ankle_angle_r	subtalar_angle_r	mtp_angle_r	hip_flexion_l	hip_adduction_l	hip_rotation_l	knee_angle_l	knee_angle_l_beta	ankle_angle_l	subtalar_angle_l	mtp_angle_l	lumbar_extension	lumbar_bending	lumbar_rotation	arm_flex_r	arm_add_r	arm_rot_r	elbow_flex_r	pro_sup_r	wrist_flex_r	wrist_dev_r	arm_flex_l	arm_add_l	arm_rot_l	elbow_flex_l	pro_sup_l	wrist_flex_l	wrist_dev_l
      4.35000000	    -37.24469624	      7.33689309	      0.77668908	     -0.33856908	      0.76498745	     -1.03951629	     36.37174521	     -3.36333222	     -5.95875712	    113.43775164	      1.97986226	    -20.75247310	      0.00000000	      0.00000000	     90.37673345	      6.14112570	    -10.60603566	     83.15597619	      1.45134558	     29.04357980	      0.00000000	      0.00000000	      4.90082392	    -11.97479970	     -0.60593670	     89.95974919	    -10.76502329	     12.80774647	     47.85372701	     85.62884336	      0.00000000	      0.00000000	     89.96343015	    -18.37564217	     12.69989020	     50.91781659	     85.13239680	      0.00000000	      0.00000000
      4.35500000	    -37.28338850	      7.33660983	      0.82821896	     -0.33861410	      0.76440887	     -1.03943227	     36.48303317	     -3.32343431	     -6.04743013	    113.43194023	      1.97976083	    -20.78858012	      0.00000000	      0.00000000	     90.47424080	      6.19734738	    -10.57957056	     83.24766470	      1.45294584	     29.15707849	      0.00000000	      0.00000000	      4.87789127	    -11.99724008	     -0.66598519	     89.95974600	    -10.75769056	     12.80731455	     47.76397965	     85.60528225	      0.00000000	      0.00000000	     89.96351883	    -18.32382698	     12.62815277	     50.94652632	     85.11841537	      0.00000000	      0.00000000
      4.36000000	    -37.29343464	      7.37700429	      0.86732588	     -0.33864411	      0.76392465	     -1.03942557	     36.56201381	     -3.39801117	     -6.13586790	    113.46594817	      1.98035438	    -20.73770710	      0.00000000	      0.00000000	     90.52801907	      6.23885609	    -10.63298948	     83.31268017	      1.45408058	     29.19593341	      0.00000000	      0.00000000	      4.82574273	    -12.06331292	     -0.72927465	     89.95992288	    -10.80677003	     12.71766901	     47.90103082	     85.73558953	      0.00000000	      0.00000000	     89.96347872	    -18.30262997	     12.65235385	     50.93436150	     85.06637220	      0.00000000	      0.00000000
      4.36500000	    -37.29875941	      7.39110471	      0.86410790	     -0.33860628	      0.76344292	     -1.03926431	     36.63862708	     -3.38359451	     -6.19757726	    113.47197590	      1.98045959	    -20.81702532	      0.00000000	      0.00000000	     90.57981924	      6.23605945	    -10.64034991	     83.40146745	      1.45563021	     29.28022527	      0.00000000	      0.00000000	      4.78347462	    -12.09565779	     -0.73134910	     89.95996525	    -10.84319566	     12.74411459	     47.88438204	     85.65264897	      0.00000000	      0.00000000	     89.96354206	    -18.28147264	     12.65194033	     50.93410075	     85.08860680	      0.00000000	      0.00000000
      4.37000000	    -37.31266583	      7.40642244	      0.88350694	     -0.33864984	      0.76298119	     -1.03909070	     36.73940211	     -3.36550460	     -6.26594249	    113.48926071	      1.98076127	    -20.80060603	      0.00000000	      0.00000000	     90.64748829	      6.26427708	    -10.62476381	     83.46529648	      1.45674423	     29.28592598	      0.00000000	      0.00000000	      4.73708150	    -12.14111324	     -0.72145275	     89.96001327	    -10.90911244	     12.67691230	     47.92682526	     85.66485632	      0.00000000	      0.00000000	     89.96344128	    -18.21845286	     12.61723964	     50.94015649	     85.14726451	      0.00000000	      0.00000000
      4.37500000	    -37.37894167	      7.30226849	      0.95328558	     -0.33881037	      0.76244116	     -1.03897773	     36.89239868	     -3.26639631	     -6.46292335	    113.48198162	      1.98063422	    -20.97344023	      0.00000000	      0.00000000	     90.79434043	      6.28732448	    -10.52751880	     83.56735450	      1.45852548	     29.27933900	      0.00000000	      0.00000000	      4.73677911	    -12.04770560	     -0.79689698	     89.96009566	    -10.93141835	     12.58228402	     47.97307072	     85.57424526	      0.00000000	      0.00000000	     89.96348503	    -18.17628090	     12.56570029	     50.94522478	     85.07781046	      0.00000000	      0.00000000
      4.38000000	    -37.45893979	      7.30704054	      1.00500648	     -0.33897792	      0.76186176	     -1.03896382	     37.06133405	     -3.27790870	     -6.54549915	    113.54152154	      1.98167339	    -21.05735447	      0.00000000	      0.00000000	     90.94021999	      6.37194132	    -10.47304386	     83.63829327	      1.45976360	     29.30028340	      0.00000000	      0.00000000	      4.76283084	    -12.07062664	     -0.86027333	     89.96017246	    -10.93929457	     12.53071562	     48.00535260	     85.68410538	      0.00000000	      0.00000000	     89.96351624	    -18.15477671	     12.58288523	     50.92626287	     85.03943198	      0.00000000	      0.00000000
      4.38500000	    -37.43148614	      7.32191377	      1.02623028	     -0.33887184	      0.76149285	     -1.03885516	     37.10245516	     -3.29820848	     -6.61459410	    113.56011888	      1.98199797	    -21.15448190	      0.00000000	      0.00000000	     90.95820622	      6.40857262	    -10.45253145	     83.72065906	      1.46120115	     29.32164003	      0.00000000	      0.00000000	      4.68508620	    -12.10520104	     -0.88431241	     89.96026237	    -10.96793140	     12.46575252	     48.02694930	     85.69283283	      0.00000000	      0.00000000	     89.96353229	    -18.14012055	     12.59658470	     50.95385607	     85.09082814	      0.00000000	      0.00000000
      4.39000000	    -37.41472040	      7.41539118	      1.01417748	     -0.33885408	      0.76104833	     -1.03871899	     37.16503666	     -3.38586905	     -6.62354261	    113.60718576	      1.98281945	    -21.28173217	      0.00000000	      0.00000000	     90.97654981	      6.42665152	    -10.53521742	     83.78643898	      1.46234923	     29.45562877	      0.00000000	      0.00000000	      4.62576949	    -12.21847019	     -0.85745377	     89.96030718	    -10.98885537	     12.40360814	     48.06983834	     85.60380404	      0.00000000	      0.00000000	     89.96357244	    -18.09636463	     12.57759156	     50.94978052	     85.16699974	      0.00000000	      0.00000000
      4.39500000	    -37.51364443	      7.29444341	      1.06827661	     -0.33911258	      0.76039680	     -1.03861684	     37.34531815	     -3.26031490	     -6.78752788	    113.63824901	      1.98336160	    -21.35697003	      0.00000000	      0.00000000	     91.17467846	      6.46305601	    -10.37698650	     83.88683419	      1.46410146	     29.41613330	      0.00000000	      0.00000000	      4.68266813	    -12.09474640	     -0.89944459	     89.96043262	    -11.01274769	     12.32424420	     48.11725646	     85.59867006	      0.00000000	      0.00000000	     89.96361471	    -18.09282054	     12.62995791	     50.93367958	     85.10761593	      0.00000000	      0.00000000
      4.40000000	    -37.51349061	      7.29716477	      1.07331280	     -0.33903615	      0.76010271	     -1.03845201	     37.41363062	     -3.26206989	     -6.85860298	    113.65175598	      1.98359734	    -21.45393037	      0.00000000	      0.00000000	     91.19999434	      6.48287178	    -10.35587313	     83.94555569	      1.46512634	     29.52390167	      0.00000000	      0.00000000	      4.63851924	    -12.11673258	     -0.91377908	     89.96045448	    -11.04017056	     12.31821035	     48.12168910	     85.55557349	      0.00000000	      0.00000000	     89.96361483	    -18.05112634	     12.58573875	     50.92430219	     85.15676251	      0.00000000	      0.00000000
      4.40500000	    -37.53098759	      7.30160962	      1.08216924	     -0.33900193	      0.75973646	     -1.03831624	     37.48948648	     -3.25858842	     -6.92764145	    113.67657935	      1.98403059	    -21.54319866	      0.00000000	      0.00000000	     91.25903312	      6.50948880	    -10.32902675	     84.01141121	      1.46627573	     29.57858205	      0.00000000	      0.00000000	      4.61167959	    -12.13379946	     -0.93914172	     89.96058449	    -11.02119542	     12.17896584	     48.21611303	     85.62566979	      0.00000000	      0.00000000	     89.96367001	    -18.04977370	     12.59367024	     50.95561160	     85.16822527	      0.00000000	      0.00000000
      4.41000000	    -37.56598024	      7.36247632	      1.08863285	     -0.33905125	      0.75928086	     -1.03829951	     37.61799249	     -3.31571838	     -6.92909559	    113.72864152	      1.98493925	    -21.71836517	      0.00000000	      0.00000000	     91.32832690	      6.55875107	    -10.35425361	     84.05187017	      1.46698188	     29.62685986	      0.00000000	      0.00000000	      4.60586794	    -12.19110511	     -0.92292389	     89.96058620	    -11.03885639	     12.05793033	     48.30994622	     85.74773224	      0.00000000	      0.00000000	     89.96375387	    -18.06320958	     12.65597509	     50.93885872	     85.02111408	      0.00000000	      0.00000000
      4.41500000	    -37.64556598	      7.34922432	      1.10156991	     -0.33922181	      0.75875668	     -1.03817160	     37.77928238	     -3.27210655	     -6.97598678	    113.79251567	      1.98605406	    -21.73841833	      0.00000000	      0.00000000	     91.48342949	      6.59499292	    -10.29538777	     84.11813173	      1.46813836	     29.57883672	      0.00000000	      0.00000000	      4.64346466	    -12.17502301	     -0.92828569	     89.96064243	    -11.04245057	     11.99302050	     48.35339901	     85.60014357	      0.00000000	      0.00000000	     89.96375776	    -18.07614814	     12.66839760	     50.95592031	     85.07572741	      0.00000000	      0.00000000
      4.42000000	    -37.62938193	      7.37290749	      1.07775360	     -0.33921192	      0.75835481	     -1.03799847	     37.84055533	     -3.25170292	     -6.96051024	    113.81930456	      1.98652162	    -21.95844755	      0.00000000	      0.00000000	     91.50718996	      6.59112815	    -10.29304898	     84.20047192	      1.46957547	     29.68087668	      0.00000000	      0.00000000	      4.59617156	    -12.20351931	     -0.90931335	     89.96088144	    -11.03846884	     11.91241953	     48.41751195	     85.35686282	      0.00000000	      0.00000000	     89.96368324	    -18.05228496	     12.62581209	     50.94944259	     84.91146863	      0.00000000	      0.00000000
      4.42500000	    -37.60314585	      7.43508197	      1.05793848	     -0.33912770	      0.75807475	     -1.03785839	     37.86733461	     -3.32244511	     -6.95224029	    113.88281837	      1.98763014	    -21.93857312	      0.00000000	      0.00000000	     91.50125450	      6.58757960	    -10.35411360	     84.25327017	      1.47049697	     29.76383023	      0.00000000	      0.00000000	      4.54258919	    -12.27215613	     -0.84789511	     89.96088685	    -11.08780551	     11.86770491	     48.45499068	     85.54573878	      0.00000000	      0.00000000	     89.96381069	    -18.02653569	     12.63692663	     50.95994390	     85.15819627	      0.00000000	      0.00000000
      4.43000000	    -37.66739329	      7.34411160	      1.06080743	     -0.33926214	      0.75758249	     -1.03765996	     38.01724889	     -3.21904668	     -7.05710549	    113.92382651	      1.98834587	    -22.13408306	      0.00000000	      0.00000000	     91.63642347	      6.60058355	    -10.20553154	     84.34309251	      1.47206467	     29.79356135	      0.00000000	      0.00000000	      4.57846160	    -12.17118020	     -0.86357877	     89.96093217	    -11.02455591	     11.73129708	     48.48099303	     85.21871023	      0.00000000	      0.00000000	     89.96379331	    -18.03130260	     12.58508054	     50.97197091	     84.83449916	      0.00000000	      0.00000000
